<?xml version="1.0" encoding="UTF-8"?><svg id="Layer_1" xmlns="http://www.w3.org/2000/svg" viewBox="0 0 1117.34 691.38"><defs><style>.cls-1{fill:#fff;}.cls-2{fill:#878787;}</style></defs><path class="cls-2" d="m843.93,156.96c-1.69.68-3.37,1.35-5.06,2.03,1.11-2.11,2.83-2.71,5.06-2.03Z"/><path d="m468.96,343.82c1.79,4.14,3.02,8.09,5.07,11.55,11.65,19.67,31.05,24.8,53.14,21.41,7.33-1.13,10.52-6.92,12.33-13.36,2.81-10,.85-19.6-3.53-28.69-2.11-4.37-5.36-7.97-12.38-7.48.88,4.04,1.47,7.75,2.5,11.32,6.03,21.05-.24,27.69-21.6,22.73-14.09-3.27-17.2-7.74-15.54-22.32,2.59-22.72,13.11-32.7,37.76-39.05,25.94-6.68,50.62-4.01,75.58,4.79,22.96,8.1,26.08,25.4,25.11,46.93-.06,1.27-.81,2.68-1.62,3.72-4.23,5.42-25.77,9.44-31.89,6.02-4.89-2.73-6.35-7.14-5.41-12.29.99-5.4,2.72-10.67,3.6-16.08.3-1.88-.99-4.02-1.56-6.03-2.01.75-4.51.99-5.95,2.34-8.84,8.31-11.9,28.89-5.38,39.13,2.17,3.41,6.05,7.17,9.74,7.94,16.14,3.37,31.95,1.85,44.52-9.92,4.96-4.64,7.88-11.56,11.31-17.67,1.84-3.28,3.08-4.55,7.35-3.06,43.97,15.37,81.67,41.14,117.44,70.12,22.49,18.22,41.78,39.26,54.66,65.46,20.15,40.98,8.59,79.7-23.97,106.69-17.04,14.13-38.45,17.25-60.3,17.44-23.73.21-44.18-9.57-64.29-20.21-32.11-16.98-60.7-38.71-85.24-65.57-10.23-11.2-18.26-23.45-19.19-39.36-.23-3.9-2.11-8.03-4.24-11.42-4.84-7.69-13.81-7.17-18.2.85-1.41,2.57-2.77,5.52-2.92,8.36-1.07,20.05-12.33,34.67-25.73,47.92-35.36,34.98-75.07,63.26-123.58,77.21-18.12,5.21-35.88,3.19-54.09-2.36-32.87-10.01-49.67-33.41-58.45-64.44-3.39-11.96-2.58-24,1.04-35.94,5.53-18.26,14.55-34.63,26.88-49.07,37.44-43.87,83.81-75.78,135.78-99.99,6.59-3.07,13.73-4.98,21.24-7.64Z"/><path d="m.04,157.41c-.96-34.02,15.25-60.06,38.13-83.16,17.42-17.58,39.64-26.73,61.87-36.13,37.74-15.95,76.52-28.44,117.02-34.83,14.45-2.28,29.25-2.79,43.91-3.13,13.26-.31,20.48,13.07,13.13,24.18-7.96,12.04-17.46,23.08-25.08,35.31-16.59,26.63-32.69,53.56-48.47,80.68-22.44,38.58-38.32,80.06-52.48,122.19-7.21,21.46-13.37,43.29-19.77,65.02-3.24,11.01-11.1,17.72-20.58,22.85-8.42,4.55-13.31,1.83-13.7-7.72-.87-20.94-5.98-40.5-15.85-59.16-8.69-16.43-21.36-28.91-34.77-41.27C22.73,223.15,5.6,201.55,1.32,172.46c-.73-4.97-.87-10.03-1.28-15.05Z"/><path d="m1117.34,157.88c-.64,22.68-9.27,42.25-22.55,59.73-7.31,9.62-15.84,18.5-24.8,26.63-24.79,22.48-42.12,48.86-46.18,82.73-.73,6.13-.66,12.37-1.67,18.44-1.18,7.11-4.77,9.13-11.24,6.2-8.84-4.01-17.39-8.72-20.47-19-5.05-16.83-9.61-33.82-15.03-50.53-21.78-67.11-49.44-131.53-88.02-190.96-14.46-22.27-26.9-45.87-44.92-65.74-4.65-5.13-4.92-11.21-.94-17.11,3.82-5.66,8.59-8.93,16.09-8.17,13.69,1.39,27.62.95,41.15,3.16,50.57,8.25,98.64,24.5,144.65,46.98,34.98,17.09,59.2,43.42,69.66,81.27,2.36,8.53,2.9,17.56,4.28,26.37Z"/><path d="m790.56,611.19c-3.06,11.55-5.25,21.1-13.04,28.47-15.77,14.91-35.16,23.18-55.31,29.57-39.77,12.61-80.71,18.53-122.35,20.96-40.25,2.35-80.37,1.13-120.35-2.99-33.33-3.44-66.09-10.75-97.69-21.95-15.03-5.33-29.11-13.08-41.28-24.12-8.67-7.87-11.84-17.31-13.02-28.98,2.3.26,4.11.17,5.72.68,39.65,12.59,76.37,4.6,111.85-14.92,33.63-18.5,64.09-40.91,90.52-68.81,12.22-12.91,33.64-13.06,45.69-.01,26.14,28.3,56.62,50.87,90.42,68.91,25.95,13.85,53.11,24.36,83.48,20.87,8.38-.96,16.6-3.25,24.88-5,2.85-.6,5.64-1.44,10.48-2.69Z"/><path d="m765.66,289.81c-.08-30.52,24.93-55.51,56.51-54.88,32.36.66,55.35,21.9,55.67,57.18.23,26.18-20.28,53.62-53.06,54-37.58.43-58.27-23.56-59.12-56.3Zm18.63-12.27c.03,12.41,11.5,24.01,23.58,23.84,12.62-.18,23.6-11.59,23.76-24.67.14-11.99-10.98-22.8-23.54-22.89-13.82-.1-23.82,9.88-23.79,23.73Zm63.45,16.99c6.5.05,10.46-3.51,10.33-9.27-.12-5.49-4.73-10.07-10.12-10.06-5.62,0-9.62,4.22-9.72,10.25-.1,5.86,3.23,9.04,9.51,9.08Z"/><path d="m350.82,288.49c1.93,30.87-21.15,54.58-51.82,57.56-35.57,3.46-59.4-25.18-60.79-50.89-1.75-32.44,21.55-56.96,52.21-60.21,30.67-3.25,61.35,21.5,60.41,53.54Zm-95.39-11.03c-.09,12.43,11.27,23.87,23.64,23.83,12.58-.05,23.09-10.94,23.36-24.19.25-12.58-10.21-23.14-23.08-23.28-14-.15-23.82,9.55-23.92,23.64Zm73.67,7.59c-.04-5.68-4.27-9.76-10.16-9.79-5.56-.03-9.58,4.26-9.64,10.29-.06,5.14,4.3,9.28,9.83,9.36,5.84.08,10.02-4.05,9.97-9.86Z"/><path class="cls-1" d="m784.29,277.54c-.03-13.85,9.97-23.83,23.79-23.73,12.56.09,23.68,10.9,23.54,22.89-.15,13.08-11.14,24.49-23.76,24.67-12.08.17-23.55-11.42-23.58-23.84Z"/><path class="cls-1" d="m847.74,294.53c-6.28-.04-9.61-3.22-9.51-9.08.1-6.03,4.1-10.24,9.72-10.25,5.39,0,10,4.57,10.12,10.06.13,5.76-3.83,9.32-10.33,9.27Z"/><path class="cls-1" d="m255.43,277.46c.1-14.09,9.92-23.79,23.92-23.64,12.87.14,23.33,10.7,23.08,23.28-.27,13.25-10.78,24.14-23.36,24.19-12.37.05-23.73-11.4-23.64-23.83Z"/><path class="cls-1" d="m329.09,285.05c.04,5.81-4.13,9.95-9.97,9.86-5.53-.08-9.88-4.23-9.83-9.36.07-6.04,4.08-10.32,9.64-10.29,5.89.03,10.12,4.11,10.16,9.79Z"/></svg>